<svg xmlns="http://www.w3.org/2000/svg" width="124" height="40" viewBox="0 0 124 40"><g><g><g><path fill="#f60" d="M35.382 9.764H31.74c-1.25 0-1.718 1.473-1.718 1.473-1.072 2.474-2.054 7.744-2.054 7.744s-.685 2.9.768 2.9h3.76s1.084-.03 1.686-1.43c1.279-2.978 2.229-9.317 2.229-9.317.174-1.47-1.028-1.37-1.028-1.37zm6.211-4.313c1.18.992 1.902 2.719 1.657 6.456-.245 3.737-1.705 7.925-2.57 9.935-.866 2.01-2.75 5.257-6.707 5.257H25.52c-4.095 0-4.49-4.045-4.49-4.045s-.413-2.979.226-5.77c0 0 1.037-7.52 4.802-11.15 1.636-1.578 4.298-1.589 4.298-1.589h7.674s2.384-.086 3.562.906zm41.591-.906s4.211-.196 4.018 3.573c-.05.965-.485 3.75-.485 3.75h-6.414l.183-1.27s.25-1.07-1.21-1.069h-3.869s-.675-.057-1.046.812c-.845 1.974.264 2.126.264 2.126l7.286 1.508s3.56.522 3.366 3.924c0 0-.298 3.192-1.383 5.605-1.744 3.879-5.584 3.654-5.584 3.654h-9.505c-3.783 0-4.148-2.533-3.928-4.234.22-1.7.775-3.397.775-3.397h6.24s-1.214 2.624.491 2.56h4.845c.607 0 .994-.824 1.227-1.933.22-1.044-.71-1.153-.71-1.153L70.6 17.44s-3.36-.534-3.386-3.653c-.026-3.247 1.809-6.353 1.809-6.353 1.37-3.028 4.894-2.89 4.894-2.89h9.266m36.958.006h3.764l-1.302 5.213h-3.764l1.302-5.213m-4.598 0h3.763l-1.302 5.213h-3.763l1.302-5.213m-4.599 0h3.764l-1.303 5.213h-3.763l1.302-5.213m-21.353 0h20.225l-1.302 5.213h-6.797l-4.216 17.394h-6.986l4.287-17.37H88.29l1.302-5.237M56.574 9.632h-3.689l-1.208 4.872h4.493c1.611 0 1.9-1.929 2.152-3.448.262-1.572-1.748-1.424-1.748-1.424zm9.337-2.068c.337 3.792-.965 8.966-5.612 9.383 3.702.413 2.63 4.397 2.63 4.397l-.962 5.814H54.82l.953-5.768c.441-2.073-1.305-1.997-1.305-1.997h-4.001l-1.925 7.765h-6.948L47.197 4.55h13.922s4.499-.274 4.792 3.013zM11.36 9.634l-1.155 4.607h7.46l-1.218 4.794H9.051L7.053 27.16H0l5.743-22.6H23.25l-1.186 5.074H11.36M43.08.15l-.634 2.423h-6.162L36.917.15h6.163m-7.89 0l-.634 2.423h-6.162L29.027.15h6.162"/></g><g><path fill="#fff" d="M115.242 30.46h2.557v1.408h-2.557zm-13.826 4.743c0-.877-.43-1.357-1.462-1.357-1.023 0-1.463.48-1.463 1.357 0 .898.44 1.367 1.463 1.367 1.032 0 1.462-.469 1.462-1.367zm-1.462-3.009c2.883 0 4.141.959 4.141 3.01 0 2.06-1.258 3.018-4.141 3.018-2.884 0-4.142-.958-4.142-3.019 0-2.05 1.258-3.009 4.142-3.009zm15.288.225h2.557v5.58h-2.557zm-25.147 2.866l1.238-2.866h2.679l-3.14 6.487c-.398.796-.715 1.091-2.086 1.091a21.91 21.91 0 0 1-1.738-.091v-1.653c.204.02.337.03.634.03.531 0 .746-.02.95-.428l.144-.306-2.598-5.13h2.68l1.237 2.866m19.727-3.02c1.411 0 2.475.633 2.475 2.183v3.55h-2.557v-2.886c0-.704-.378-1.01-.981-1.01-.675 0-1.187.398-1.187 1.326v2.57h-2.556v-5.58h2.475v.694h.02c.266-.357 1.084-.846 2.311-.846m-39.505.968c0-.55-.358-.683-.839-.683h-2.004v1.367h2.045c.563 0 .798-.224.798-.684zm2.771 2.316l.123 1.591c.03.327.174.633.358.857h-3.15c-.102-.214-.102-.53-.153-1.377-.03-.54-.215-.867-.747-.867h-2.045v2.244H64.59v-7.283h6.075c.828 0 1.33.071 1.728.265.542.266.992.97.992 1.765 0 .683-.286 1.418-1.125 1.663v.02c.43.123.777.49.828 1.122zm49.926.98c.205 0 .44-.01.685-.021v1.49c-.45.06-1.063.122-1.86.122-1.555 0-2.148-.296-2.148-1.816V34.01h-1.187v-1.591h1.187v-1.796h2.556v1.796h1.381v1.59h-1.38v1.97c0 .52.214.55.766.55m-39.78-6.069h2.556v7.538h-2.557zm-3.54 4.06c-.05-.602-.633-.98-1.513-.98-.89 0-1.4.276-1.534.98zm-1.676-2.326c2.474 0 4.295.826 4.254 3.611h-5.625c0 .398.42 1.01 1.544 1.01.665 0 1.054-.143 1.33-.49h2.72c-.194.582-.624 1.061-1.278 1.388-.655.326-1.534.51-2.71.51-2.69 0-4.224-.98-4.224-3.02 0-1.928 1.473-3.009 3.989-3.009z"/></g></g></g></svg>